<?xml version="1.0" encoding="utf-8"?>
<!-- Generator: Adobe Illustrator 21.0.0, SVG Export Plug-In . SVG Version: 6.00 Build 0)  -->
<svg version="1.1" id="logoIcon" xmlns="http://www.w3.org/2000/svg" xmlns:xlink="http://www.w3.org/1999/xlink" x="0px" y="0px"
	 viewBox="0 0 369 221" style="enable-background:new 0 0 369 221;" xml:space="preserve">
<style type="text/css">
	.st0{display:none;}
	.st1{fill:#ffffff;}
</style>

<g id="Слой_2">
	<g>
		<path class="st1" d="M164.3,77.4c1.7,1.6,3.6,3.4,5.5,5.2V68.4c-1.8-2.4-3.7-4.8-5.5-7.4h-13.8v80.3h13.8V77.4z"/>
		<path class="st1" d="M205.2,101.4c-4.4-2.9-9.1-6.3-14-10.5v9.8c2.7,2,5.6,3.9,8.5,5.7v35h5.5V101.4z"/>
		<path class="st1" d="M234.3,114.5c0,0-7.6-1.3-19-7.2v6.8c1.7,0.7,3.4,1.3,5.2,1.9v25.3h13.8V114.5z"/>
		<path class="st1" d="M206.5,141.3h5.7V42.2c0,0-16.7-12-25-36.2h-14.8v65.5v13.4v56.4h14.8V30.7c4.3,3.3,10.6,7.7,19.3,13V141.3z"/>
	</g>
	<rect class="st1" x="98.8" y="143.1" width="179.1" height="2.9"/>
	<g>
		<path class="st1" d="M173.9,187.8c-4.1,0.3-4.9,1.1-4.9,5.6v14c-3.8,3.2-10.6,4.9-17.8,4.9c-7.1,0-14.3-2.7-18.9-7.5
			c-3.9-4.1-5.8-9.5-5.8-16.4c0-7.7,2.8-14.1,7.5-18.4c4.2-3.9,9.9-6,16.7-6c3.8,0,6.2,0.6,9.3,1.6c1.3,0.5,2.4,0.7,3.1,0.7
			c1.5,0,2.7-1,3.1-2.3h1.5l0.6,14.8h-1.6c-1.8-4.3-2.9-6.1-5-8.1c-2.7-2.5-6.3-3.8-10.2-3.8c-4.8,0-8.7,1.8-11.7,4.8
			c-3.7,3.7-5.4,10.1-5.4,17c0,13,7.4,20.9,18.4,20.9c5.4,0,9.3-2,9.3-4.3v-11c0-5.5-0.7-6-6.2-6.4v-1.3h17.9V187.8z"/>
		<path class="st1" d="M211,211.3l-16.7-21.6l-3.9,0.1v13.6c0,5.3,0.8,6.2,6.2,6.5v1.3h-19.3V210c5.2-0.4,6-1.2,6-7.4v-29.9c0-5.2-0.6-6-6-6.4
			V165h19c6.7,0,11.6,1.7,14.6,4.1c2.3,1.9,3.4,5.3,3.4,8.4c0,6.1-3.9,10.2-12.7,11.5l14,17.7c2,2.6,3.5,3,6.6,3.3v1.3H211z
			 M190.5,187.3c6.7-0.1,9.2-0.6,12.4-2.4c2.5-1.4,4-4.5,4-8c0-6.3-4.1-9.4-12.8-9.4c-2.4,0-3.6,0.5-3.6,2.9V187.3z"/>
		<path class="st1" d="M247.7,212.3c-13.6,0-22.9-9.8-22.9-24.4c0-14.2,9.2-23.9,22.9-23.9c13.7,0,22.9,10.3,22.9,24.2
			C270.6,202.6,261.2,212.3,247.7,212.3z M256.3,169.8c-2.5-2.1-5.3-3.3-8.6-3.3c-3.8,0-7.3,1.5-10,4.7c-3,3.4-4.8,10.2-4.8,16.9
			c0,8.3,2,14.6,6.3,18.6c2.4,2.2,5.5,3.2,8.7,3.2c3.5,0,6.6-1.1,9-3.4c3.8-3.7,5.8-10.3,5.8-18.7
			C262.6,179.7,260.3,173.2,256.3,169.8z"/>
		<path class="st1" d="M323.8,166.3c-5.9,0.6-6.6,2.2-6.6,8.9V193c0,6.8-0.6,10.6-3.8,14.1c-2.9,3.4-7.7,5.1-14.1,5.1c-5.1,0-9-1-11.9-3.2
			c-3.9-2.9-5.7-7.8-5.7-15.2v-21.7c0-4.7-0.8-5.5-6.3-5.9V165h19.8v1.3c-5.6,0.5-6.4,1.3-6.4,6.6v21.8c0,5.5,0.3,8.6,3.1,11.3
			c2,2,5,3.2,9,3.2c4.5,0,8.4-1.5,10.6-4.1c2.3-2.8,2.6-5.6,2.6-11.3v-18.4c0-7.2-0.9-8.8-6.6-9.1V165h16.2V166.3z"/>
		<path class="st1" d="M345.6,165c7,0,12,1.8,15.2,4.4c2.3,2,3.5,4.8,3.5,8.3c0,3.7-1.4,6.9-4,9.2c-4.1,3.6-7.5,4.3-15,4.3
			c-1.8,0-2.9-0.1-4.8-0.2v12.5c0,5.3,0.9,6.2,6.6,6.5v1.3h-19.6V210c5.5-0.4,5.9-1.2,5.9-7.2v-30c0-5.2-0.7-6-5.9-6.4V165H345.6z
			 M340.5,188.1c1.6,0.1,2.9,0.2,4.3,0.2c7.7,0,11.9-4,11.9-10.3c0-7.7-4.2-10.5-13.7-10.5c-2,0-2.5,0.6-2.5,2.5V188.1z"/>
	</g>
	<g>
		<path class="st1" d="M31.8,187c4.6,0.8,6.5,2,8.5,3.9c2.2,2,3.4,5,3.4,8.1c0,7.8-6.6,12.5-16.7,12.5H3.4V210c5.5-0.1,6.7-1.3,6.7-6.6v-30.6
			c0-5.5-1-6.2-6.7-6.5V165H23c12.1,0,18.3,4.3,18.3,11.7c0,2.9-1.1,5.7-2.9,7.3C36.8,185.4,35.4,186,31.8,187L31.8,187z
			 M23.7,185.7c7.1,0,10.5-2.9,10.5-8.7c0-5.9-4.1-9.5-12.4-9.5H19c-1.2,0-1.7,0.6-1.7,2.2v15.9H23.7z M17.3,205.6
			c0,2.4,1.1,3.2,4.3,3.2c5.9,0,8.3-0.3,11.4-3c1.8-1.5,2.7-3.9,2.7-6.9c0-3.4-1-6-3.3-7.5c-4.2-2.8-6.9-2.5-15.1-2.8V205.6z"/>
		<path class="st1" d="M78.6,211.3V210c5.5-0.4,6.2-1.5,6.2-7.4v-13.4H63.6v14.1c0,5.1,0.9,6.3,6.1,6.6l0.1,1.3H50.2V210
			c5.5-0.4,6.2-1.2,6.2-7.2V173c0-5.5-0.8-6.2-6.2-6.7V165h19.6v1.3c-5.1,0.4-6.2,1.2-6.2,6.7v13.2h21.2V173c0-5.5-0.9-6.2-6.2-6.7
			V165h19.6v1.3c-5.2,0.4-6.2,1.3-6.2,6.7v30.6c0,5,1,6,6.2,6.4v1.3H78.6z"/>
	</g>
</g>
</svg>
