<?xml version="1.0" encoding="utf-8"?>
<!-- Generator: Adobe Illustrator 21.0.0, SVG Export Plug-In . SVG Version: 6.00 Build 0)  -->
<svg version="1.1" id="Слой_1" xmlns="http://www.w3.org/2000/svg" xmlns:xlink="http://www.w3.org/1999/xlink" x="0px" y="0px"
	 viewBox="0 0 347.3 274.7" style="enable-background:new 0 0 347.3 274.7;" xml:space="preserve">
<style type="text/css">
	.st0{fill:#FFFFFF;}
	.st1{fill:none;stroke:#FFFFFF;stroke-width:2;stroke-miterlimit:10;}
</style>
<g id="Слой_2">
	<g>
		<g>
			<path class="st0" d="M127.5,111.4c2.3,3.2,4.6,6.2,6.8,9.1c0.8,1.1,1.7,2.2,2.5,3.3v21.1c-2.4-2.3-4.8-4.5-6.9-6.5l-3.4-3.1v4.6
				v116.6h-21.8v-145H127.5 M128.5,109.4h-25.8v149h25.8V139.8c3.2,3,6.7,6.3,10.3,9.6v-26.3C135.5,118.7,131.9,114.2,128.5,109.4
				L128.5,109.4z"/>
		</g>
		<g>
			<path class="st0" d="M180.9,169.1c6.9,5.7,14.2,11,22.2,16.3v71.1h-6.3v-62.9v-1.1l-1-0.6c-5.8-3.6-10.7-6.8-15-9.9V169.1
				 M178.9,164.9V183c5.1,3.7,10.5,7.2,15.9,10.6v64.9h10.3v-74.2C196.9,179,188.1,172.7,178.9,164.9L178.9,164.9z"/>
		</g>
		<g>
			<path class="st0" d="M226.1,198.5c15.9,7.8,27.4,10.8,31.6,11.8v46.1h-21.8v-44.9V210l-1.4-0.5c-3.4-1.1-6-2-8.4-3V198.5
				 M224.1,195.3v12.6c3.2,1.3,6.4,2.4,9.7,3.5v46.9h25.8v-49.7C259.7,208.7,245.4,206.2,224.1,195.3L224.1,195.3z"/>
		</g>
		<g>
			<path class="st0" d="M170,9.3c8.1,22.8,20.3,39.6,29.2,49.7c8.1,9.2,14.8,14.7,17.1,16.4v180.9h-6.7V77.3v-1.1l-1-0.6
				c-17.6-10.6-29.3-18.9-36-24l-3.2-2.4v4v203.2h-23.7V153.7v-24.9V9.3H170 M171.4,7.3h-27.7v121.5v24.9v104.7h27.7V53.2
				c8.1,6.1,19.9,14.3,36.2,24.1v181.1h10.7V74.5C218.3,74.5,187,52.2,171.4,7.3L171.4,7.3z"/>
		</g>
	</g>
	<line class="st1" x1="5.8" y1="265.4" x2="341.3" y2="265.4"/>
</g>
</svg>
