<?xml version="1.0" encoding="utf-8"?>
<!-- Generator: Adobe Illustrator 21.0.0, SVG Export Plug-In . SVG Version: 6.00 Build 0)  -->
<svg version="1.1" id="Слой_1" xmlns="http://www.w3.org/2000/svg" xmlns:xlink="http://www.w3.org/1999/xlink" x="0px" y="0px"
	 viewBox="0 0 935.4 935.4" style="enable-background:new 0 0 935.4 935.4;" xml:space="preserve">
<style type="text/css">
	.st0{display:none;}
	.st1{display:none;fill:none;stroke:#BABABA;stroke-miterlimit:10;}
	.st2{fill:#FFFFFF;}
</style>
<path class="st0" d="M467.7,0C209.4,0,0,209.4,0,467.7s209.4,467.7,467.7,467.7S935.4,726,935.4,467.7S726,0,467.7,0z M467.7,819.2
	c-194.1,0-351.5-157.4-351.5-351.5s157.4-351.5,351.5-351.5s351.5,157.4,351.5,351.5S661.8,819.2,467.7,819.2z"/>
<circle class="st1" cx="467" cy="467.1" r="351.5"/>
<path class="st2" d="M467.7,116.2c93.5,0.2,181.3,36.7,247.4,102.8c66.2,66.2,102.7,154.1,102.8,247.7h1
	c-0.1-47.3-9.4-93.3-27.7-136.5c-17.7-41.9-43.1-79.6-75.4-111.9c-32.3-32.3-70-57.7-111.9-75.4c-43.2-18.3-89-27.6-136.3-27.7
	V116.2z"/>
</svg>
